<svg xmlns="http://www.w3.org/2000/svg" viewBox="0 0 402.17 402.17"><path d="M392.094 32.321h-99.093l.317-.317c-12.659-12.659-29.479-19.631-47.357-19.631-17.88 0-34.698 6.972-47.357 19.631l.317.317H99.828c-5.557 0-10.077 4.521-10.077 10.077v33.448H61.997v-24.55c0-17.093-13.906-30.999-30.999-30.999S0 34.203 0 51.296v1.551C0 69.94 13.905 83.846 30.998 83.846h22.999v121.591c-7.247 1.523-12.705 7.962-12.705 15.655v20.47c0 7.693 5.458 14.132 12.705 15.655v29.696a4 4 0 008 0v-29.696c7.247-1.523 12.705-7.962 12.705-15.655v-20.47c0-7.693-5.458-14.132-12.705-15.655V83.846h27.754v279.181c0 14.762 12.01 26.771 26.771 26.771h258.876c14.762 0 26.771-12.009 26.771-26.771V42.398c.001-5.556-4.52-10.077-10.075-10.077zM30.998 75.846C18.316 75.846 8 65.529 8 52.847v-1.551c0-12.682 10.316-22.999 22.998-22.999s22.999 10.317 22.999 22.999v24.55H30.998zm27.705 173.715h-1.412c-4.411 0-7.999-3.588-7.999-8v-14.176h17.41v14.176c0 4.411-3.588 8-7.999 8zm7.812-30.176H49.479c.784-3.593 3.986-6.293 7.812-6.293h1.412c3.825 0 7.027 2.7 7.812 6.293zM245.961 20.372c13.008 0 25.373 4.202 35.568 11.949h-71.136c10.195-7.746 22.559-11.949 35.568-11.949zM134.833 83.846c1.625 4.311 5.78 7.392 10.653 7.392 6.282 0 11.393-5.11 11.393-11.392s-5.11-11.392-11.393-11.392c-4.872 0-9.028 3.081-10.653 7.392h-6.367V60.967h234.989v35.131c-38.48 8.93-77.992 13.456-117.494 13.456s-79.014-4.526-117.495-13.456V83.846h6.367zm7.261-4a3.395 3.395 0 013.392-3.392c1.871 0 3.393 1.521 3.393 3.392s-1.521 3.392-3.393 3.392a3.395 3.395 0 01-3.392-3.392zm-21.627 19.42a4 4 0 003.072 3.891c40.055 9.553 81.243 14.397 122.422 14.397s82.367-4.844 122.422-14.397a4 4 0 003.072-3.891V56.967a4 4 0 00-4-4H124.466a4.001 4.001 0 00-4 4v18.879H97.751V42.398a2.08 2.08 0 012.077-2.077h292.266c1.145 0 2.076.932 2.076 2.077v308.456c-16.206 1.844-29.101 14.738-30.946 30.944H128.695c-1.845-16.205-14.739-29.099-30.944-30.944V83.846h22.715l.001 15.42zM97.751 363.027v-4.11c11.789 1.748 21.133 11.092 22.882 22.881h-4.11c-10.351 0-18.772-8.421-18.772-18.771zm277.647 18.771h-4.112c1.748-11.79 11.093-21.134 22.884-22.881v4.11c0 10.35-8.421 18.771-18.772 18.771z"/><path d="M124.466 361.13h242.989a4 4 0 004-4V114.141a4 4 0 00-4.919-3.893c-39.462 9.311-80.029 14.033-120.575 14.033s-81.113-4.722-120.576-14.033a3.998 3.998 0 00-4.919 3.893V357.13a4 4 0 004 4zm4.001-197.85l37.105-37.105a534.409 534.409 0 0024.32 3.131l-61.425 61.425V163.28zm-.001 38.765l71.744-71.743a534.568 534.568 0 0025.865 1.596l-97.608 97.608-.001-27.461zm0 77.548l148.196-148.206a533.74 533.74 0 0030.044-2.592l-178.24 178.25v-27.452zm0 38.764l191.19-191.2a533.552 533.552 0 0033.162-5.711L128.466 345.807v-27.45zm234.989-13.709l-48.482 48.482h-27.45l75.933-75.932v27.45zm0-38.763l-87.246 87.246h-27.451l114.697-114.706v27.46zm0-38.774L237.446 353.13h-27.452l153.461-153.47v27.451zm0-38.764L198.682 353.13h-27.461l192.234-192.234v27.451zm0-38.764L159.907 353.13h-27.451l230.999-231.009v27.462zM326.286 353.13l37.169-37.169v37.169h-37.169zm-61.483-221.197L128.466 268.28v-27.461l108.621-108.62c2.958.049 5.916.082 8.874.082 6.282 0 12.563-.125 18.842-.348zm-108.964-7.339l-27.372 27.372v-32.797a531.18 531.18 0 0027.372 5.425zm187.084-30.245c7.654 0 13.882-6.228 13.882-13.882s-6.228-13.882-13.882-13.882c-7.655 0-13.883 6.228-13.883 13.882s6.228 13.882 13.883 13.882zm0-19.764c3.243 0 5.882 2.639 5.882 5.882s-2.639 5.882-5.882 5.882c-3.244 0-5.883-2.639-5.883-5.882s2.639-5.882 5.883-5.882zM172.968 91.238c6.282 0 11.393-5.11 11.393-11.392s-5.11-11.392-11.393-11.392c-6.281 0-11.392 5.11-11.392 11.392s5.111 11.392 11.392 11.392zm0-14.784c1.871 0 3.393 1.521 3.393 3.392s-1.521 3.392-3.393 3.392c-1.87 0-3.392-1.521-3.392-3.392s1.522-3.392 3.392-3.392zm27.482 14.784c6.282 0 11.393-5.11 11.393-11.392s-5.11-11.392-11.393-11.392c-6.281 0-11.392 5.11-11.392 11.392s5.111 11.392 11.392 11.392zm0-14.784c1.871 0 3.393 1.521 3.393 3.392s-1.521 3.392-3.393 3.392c-1.87 0-3.392-1.521-3.392-3.392s1.522-3.392 3.392-3.392zm27.483 14.784c6.281 0 11.392-5.11 11.392-11.392s-5.11-11.392-11.392-11.392c-6.282 0-11.393 5.11-11.393 11.392s5.11 11.392 11.393 11.392zm0-14.784c1.87 0 3.392 1.521 3.392 3.392s-1.521 3.392-3.392 3.392-3.393-1.521-3.393-3.392 1.522-3.392 3.393-3.392z"/></svg>