<svg xmlns="http://www.w3.org/2000/svg" viewBox="0 0 41.011 41.011"><path d="M40.839 6.436C40.839 2.887 38.086 0 34.703 0H6.308C2.925 0 .172 2.887.172 6.436v28.139c0 3.549 2.753 6.436 6.136 6.436h28.395c3.383 0 6.136-2.887 6.136-6.436V6.436zm-2.113 28.138c0 2.384-1.805 4.322-4.023 4.322H6.308c-2.219 0-4.023-1.938-4.023-4.322V6.436c0-2.384 1.805-4.322 4.023-4.322h28.395c2.219 0 4.023 1.938 4.023 4.322v28.138zM10.164 10.979h11.085v.94c0 .791.645 1.434 1.434 1.434h.904c.791 0 1.434-.643 1.434-1.434v-.94h5.36a.375.375 0 000-.75h-5.36v-.94c0-.789-.643-1.434-1.434-1.434h-.904c-.789 0-1.434.644-1.434 1.434v.94H10.164a.375.375 0 000 .75zm12.085 0v-1.69c0-.238.195-.434.434-.434h.904c.238 0 .434.195.434.434v2.63c0 .24-.195.434-.434.434h-.904a.434.434 0 01-.434-.434v-.94zM10.164 21.848h4.031v.94c0 .791.644 1.434 1.434 1.434h.904c.791 0 1.434-.643 1.434-1.434v-.94h12.414a.375.375 0 000-.75H17.967v-.94c0-.789-.643-1.434-1.434-1.434h-.904c-.789 0-1.434.645-1.434 1.434v.94h-4.031a.375.375 0 000 .75zm5.031 0v-1.69c0-.238.195-.434.434-.434h.904c.238 0 .434.195.434.434v2.63c0 .24-.195.434-.434.434h-.904a.434.434 0 01-.434-.434v-.94zm15.188 8.181h-2.409v-.941c0-.789-.642-1.434-1.434-1.434h-.904c-.789 0-1.434.645-1.434 1.434v.941H10.166a.375.375 0 000 .75h14.036v.94c0 .791.645 1.434 1.434 1.434h.904c.791 0 1.434-.643 1.434-1.434v-.94h2.409a.375.375 0 000-.75zm-3.41 0v1.69c0 .24-.195.434-.434.434h-.904a.434.434 0 01-.434-.434v-2.631c0-.238.195-.434.434-.434h.904c.238 0 .434.195.434.434v.941z" fill="#010002"/></svg>