<svg xmlns="http://www.w3.org/2000/svg" viewBox="0 0 465.634 465.634"><path d="M140.432 365.132l-41.785-41.785 24.068-24.068 41.785 41.784-24.068 24.069zm-30.471-41.784l30.471 30.471 12.754-12.755-30.471-30.471-12.754 12.755zm3.375 66.528a3.994 3.994 0 01-2.829-1.171l-34.738-34.738a4 4 0 015.657-5.657l34.738 34.738a4 4 0 01-2.828 6.828zm16.44-16.765a3.987 3.987 0 01-2.415-.813l-39.14-29.692a4 4 0 014.834-6.374l39.14 29.692a4 4 0 01-2.419 7.187zm31.846-123.299a10.808 10.808 0 01-7.692-3.186c-4.241-4.242-4.241-11.143 0-15.384a10.811 10.811 0 017.692-3.186c2.905 0 5.637 1.131 7.691 3.186 4.242 4.242 4.242 11.143 0 15.384a10.804 10.804 0 01-7.691 3.186zm0-13.756a2.86 2.86 0 00-2.036.843 2.881 2.881 0 000 4.07c1.086 1.087 2.982 1.088 4.07 0a2.88 2.88 0 00-2.034-4.913zM98.531 440.23a10.811 10.811 0 01-7.692-3.186 10.808 10.808 0 01-3.186-7.692c0-2.905 1.132-5.637 3.186-7.692 2.055-2.054 4.787-3.186 7.692-3.186s5.637 1.132 7.692 3.186a10.811 10.811 0 013.186 7.692c0 2.906-1.132 5.638-3.187 7.692a10.807 10.807 0 01-7.691 3.186zm0-13.756c-.769 0-1.491.299-2.035.843-.544.543-.843 1.266-.843 2.035s.299 1.491.843 2.035c1.088 1.088 2.983 1.088 4.07 0 .544-.543.843-1.266.843-2.035s-.299-1.491-.843-2.035a2.86 2.86 0 00-2.035-.843zm26.189-12.433a10.811 10.811 0 01-7.692-3.186c-4.241-4.241-4.241-11.143 0-15.384a10.811 10.811 0 017.692-3.186c2.906 0 5.638 1.132 7.692 3.187 4.241 4.241 4.241 11.142 0 15.383a10.808 10.808 0 01-7.692 3.186zm0-13.756c-.769 0-1.491.299-2.035.843a2.88 2.88 0 000 4.069c1.087 1.088 2.982 1.087 4.069 0a2.881 2.881 0 000-4.07 2.857 2.857 0 00-2.034-.842zm5.406 47.998a10.808 10.808 0 01-7.692-3.186c-4.241-4.241-4.241-11.143 0-15.384a10.811 10.811 0 017.692-3.186c2.905 0 5.637 1.132 7.692 3.186 4.241 4.241 4.241 11.143 0 15.384a10.811 10.811 0 01-7.692 3.186zm0-13.756c-.769 0-1.492.299-2.035.843a2.88 2.88 0 000 4.069c1.087 1.087 2.983 1.088 4.07 0a2.88 2.88 0 000-4.069 2.862 2.862 0 00-2.035-.843zm26.19-12.433a10.804 10.804 0 01-7.692-3.187 10.807 10.807 0 01-3.186-7.691c0-2.906 1.132-5.638 3.187-7.692a10.807 10.807 0 017.691-3.186c2.905 0 5.637 1.132 7.692 3.186a10.808 10.808 0 013.186 7.692c0 2.905-1.132 5.637-3.186 7.692a10.811 10.811 0 01-7.692 3.186zm0-13.756c-.769 0-1.491.299-2.035.843s-.843 1.267-.843 2.035.299 1.491.843 2.035c1.087 1.088 2.982 1.088 4.069 0 .544-.543.843-1.266.843-2.035s-.299-1.491-.843-2.035a2.855 2.855 0 00-2.034-.843z"/><path d="M465.169 38.405l-1.995-3.591c-3.318-5.973-9.459-20.959-9.521-21.11l-.635-1.552-1.552-.635c-.151-.062-15.137-6.203-21.11-9.521L426.764 0l-1.899 3.643c-1.943 3.729-4.421 7.474-7.213 11.137l-4.663-4.663c-1.532-1.532-4.051-1.757-5.66-.307a4.001 4.001 0 00-.156 5.805l5.39 5.39a165.178 165.178 0 01-7.633 8.148l-5.488-5.488c-1.532-1.532-4.051-1.757-5.66-.307a4.001 4.001 0 00-.156 5.805l5.538 5.538a244.201 244.201 0 01-8.378 7.403l-4.891-4.891c-1.532-1.532-4.051-1.757-5.66-.307a4.001 4.001 0 00-.156 5.805l4.485 4.485c-3.436 2.72-5.64 4.313-5.724 4.374l-1.497 1.074-1.072 12.504-166.65 161.676a46.444 46.444 0 00-4.871-5.768c-17.268-17.266-44.739-17.889-61.239-1.39-6.757 6.758-13.72 20.391-18.171 35.582-3.239 11.068-13.977 18.048-25.544 16.602-28.318-3.554-55.425 5.271-74.374 24.22-35.904 35.904-32.678 97.55 7.19 137.42 21.305 21.304 48.823 32.146 75.313 32.144 23.083-.001 45.389-8.235 62.107-24.954 17.656-17.656 26.463-41.908 24.799-68.294-.9-14.077 8.145-27.221 21.999-31.964 7.914-2.716 15.549-6.441 22.694-11.071 5.351-3.471 10.596-7.595 15.59-12.259 3.75-3.508 4.337-8.926 1.427-13.177-2.912-4.251-8.175-5.665-12.769-3.452l-.981.461c-7.146 3.266-15.381 2.641-21.536-1.663-.266-.181-.53-.382-.792-.58l-.053-.04c-4.088-3.149-5.637-7.943-5.33-12.747.291-4.554 2.375-8.809 5.552-12.085L400.021 88.9l12.505-1.072 1.074-1.497c.061-.085 1.651-2.285 4.367-5.718l4.545 4.545a3.985 3.985 0 002.828 1.171c.962 0 1.923-.345 2.684-1.034 1.711-1.551 1.625-4.315-.009-5.948l-4.958-4.958a243.805 243.805 0 017.408-8.379l5.598 5.598a3.989 3.989 0 002.829 1.172c.962 0 1.925-.345 2.686-1.036 1.709-1.551 1.62-4.315-.012-5.947l-5.552-5.553a164.833 164.833 0 018.153-7.63l5.446 5.446a3.985 3.985 0 002.828 1.171c.962 0 1.923-.345 2.684-1.034 1.711-1.551 1.625-4.315-.009-5.948l-4.729-4.729c3.664-2.791 7.409-5.273 11.142-7.218l3.64-1.897zM215.56 305.004l.084.063c.365.275.737.554 1.066.777 8.425 5.891 19.693 6.793 29.441 2.337l1.057-.497c1.505-.722 2.41.282 2.729.748.319.466.93 1.674-.288 2.813-4.65 4.343-9.522 8.176-14.48 11.391-6.597 4.275-13.642 7.713-20.937 10.217-17.256 5.908-28.518 22.375-27.388 40.039 1.517 24.057-6.464 46.122-22.473 62.13-32.784 32.785-89.355 29.56-126.105-7.19s-39.976-93.321-7.19-126.105c17.189-17.19 41.875-25.186 67.721-21.939 15.477 1.937 29.87-7.437 34.218-22.292 4.034-13.767 10.373-26.396 16.15-32.173 13.38-13.381 35.776-12.759 49.924 1.39a38.3 38.3 0 014.719 5.746l-33.818 32.809-6.632-6.632-24.068 24.068 41.785 41.785 24.068-24.068-5.243-5.243 7.185-7.406c.172 6.468 2.748 12.822 8.475 17.232zm-21.73-4.584l-12.755 12.754-30.471-30.471 12.755-12.754 30.471 30.471zm.413-10.9l-18.595-18.595L380.084 72.593l12.492 12.492L194.243 289.52zM408.198 80.17l-8.496.728-15.432-15.432.728-8.495c6.563-4.888 32.359-24.88 45.02-46.155 5.672 2.766 13.553 6.087 16.869 7.466 1.378 3.315 4.7 11.197 7.466 16.869-21.275 12.66-41.267 38.456-46.155 45.019z"/></svg>